<mxfile host="app.diagrams.net" modified="2023-05-24T15:38:49.747Z" agent="Mozilla/5.0 (Windows NT 10.0; Win64; x64) AppleWebKit/537.36 (KHTML, like Gecko) Chrome/113.0.0.0 Safari/537.36" version="21.1.1" etag="RPef9mvsezmVjJdYCtRe" type="github">
  <diagram name="PÃ¡gina-1" id="WU4skkOJrxhUef9H7zoz">
    <mxGraphModel>
      <root>
        <mxCell id="0" />
        <mxCell id="1" parent="0" />
      </root>
    </mxGraphModel>
  </diagram>
</mxfile>
